<svg xmlns="http://www.w3.org/2000/svg" xmlns:xlink="http://www.w3.org/1999/xlink" width="150" zoomAndPan="magnify" viewBox="0 0 112.5 112.499997" height="150" preserveAspectRatio="xMidYMid meet" version="1.0"><defs><clipPath id="f5d7db9087"><path d="M 0 0 L 112.003906 0 L 112.003906 112.003906 L 0 112.003906 Z M 0 0 " clip-rule="nonzero"/></clipPath><clipPath id="fde687bd4c"><path d="M 57 36 L 104.59375 36 L 104.59375 104.59375 L 57 104.59375 Z M 57 36 " clip-rule="nonzero"/></clipPath><clipPath id="5363c8eab4"><path d="M 7.84375 22 L 29 22 L 29 96 L 7.84375 96 Z M 7.84375 22 " clip-rule="nonzero"/></clipPath><clipPath id="1a341da946"><path d="M 34 7.84375 L 84 7.84375 L 84 18 L 34 18 Z M 34 7.84375 " clip-rule="nonzero"/></clipPath></defs><g clip-path="url(#f5d7db9087)"><path fill="none" d="M 0 0 L 112.5 0 L 112.5 120 L 0 120 Z M 0 0 " fill-opacity="1" fill-rule="nonzero"/><path fill="none" d="M 0 0 L 112.5 0 L 112.5 112.5 L 0 112.5 Z M 0 0 " fill-opacity="1" fill-rule="nonzero"/><path fill="none" d="M 0 0 L 112.5 0 L 112.5 112.5 L 0 112.5 Z M 0 0 " fill-opacity="1" fill-rule="nonzero"/></g><g clip-path="url(#fde687bd4c)"><path fill="#54afe6" d="M 58.667969 104.5625 C 58.289062 104.5625 57.972656 104.269531 57.953125 103.886719 C 57.933594 103.492188 58.238281 103.15625 58.632812 103.136719 C 83.609375 101.867188 103.171875 81.269531 103.171875 56.25 C 103.171875 49.675781 101.832031 43.3125 99.191406 37.335938 C 99.035156 36.976562 99.199219 36.554688 99.558594 36.394531 C 99.917969 36.234375 100.339844 36.398438 100.5 36.761719 C 103.222656 42.917969 104.601562 49.476562 104.601562 56.25 C 104.601562 68.71875 99.851562 80.566406 91.226562 89.609375 C 82.632812 98.625 71.082031 103.933594 58.703125 104.5625 C 58.691406 104.5625 58.679688 104.5625 58.667969 104.5625 " fill-opacity="1" fill-rule="nonzero"/></g><g clip-path="url(#5363c8eab4)"><path fill="#2c3587" d="M 28.203125 95.5 C 28.058594 95.5 27.910156 95.453125 27.78125 95.363281 C 21.742188 90.957031 16.730469 85.136719 13.285156 78.523438 C 9.726562 71.691406 7.84375 63.988281 7.84375 56.25 C 7.84375 43.488281 12.789062 31.4375 21.765625 22.320312 C 22.042969 22.039062 22.496094 22.039062 22.777344 22.3125 C 23.058594 22.589844 23.0625 23.042969 22.785156 23.324219 C 14.074219 32.171875 9.273438 43.863281 9.273438 56.25 C 9.273438 71.183594 16.507812 85.371094 28.625 94.207031 C 28.941406 94.441406 29.015625 94.886719 28.78125 95.203125 C 28.640625 95.398438 28.421875 95.5 28.203125 95.5 " fill-opacity="1" fill-rule="nonzero"/></g><g clip-path="url(#1a341da946)"><path fill="#2c3587" d="M 82.980469 17.539062 C 82.84375 17.539062 82.703125 17.5 82.578125 17.414062 C 74.785156 12.105469 65.667969 9.300781 56.222656 9.300781 C 49.105469 9.300781 42.261719 10.859375 35.886719 13.9375 C 35.53125 14.109375 35.105469 13.957031 34.933594 13.605469 C 34.761719 13.25 34.910156 12.820312 35.265625 12.648438 C 41.835938 9.476562 48.886719 7.871094 56.222656 7.871094 C 65.957031 7.871094 75.347656 10.761719 83.386719 16.234375 C 83.710938 16.457031 83.796875 16.898438 83.574219 17.226562 C 83.433594 17.429688 83.210938 17.539062 82.980469 17.539062 " fill-opacity="1" fill-rule="nonzero"/></g><path fill="#286291" d="M 82.179688 92.761719 C 81.957031 92.761719 81.738281 92.65625 81.601562 92.464844 C 81.367188 92.148438 81.4375 91.699219 81.757812 91.46875 C 87.710938 87.140625 92.507812 81.34375 95.628906 74.710938 C 95.796875 74.351562 96.222656 74.199219 96.578125 74.367188 C 96.933594 74.535156 97.089844 74.960938 96.921875 75.316406 C 93.699219 82.171875 88.746094 88.152344 82.597656 92.625 C 82.472656 92.714844 82.324219 92.761719 82.179688 92.761719 " fill-opacity="1" fill-rule="nonzero"/><path fill="#f1ad53" d="M 56.222656 101.195312 C 46.542969 101.195312 37.3125 98.152344 29.535156 92.394531 C 25.792969 89.625 22.511719 86.308594 19.785156 82.535156 C 17.023438 78.714844 14.890625 74.519531 13.445312 70.054688 C 13.324219 69.679688 13.527344 69.277344 13.90625 69.15625 C 14.28125 69.035156 14.683594 69.242188 14.804688 69.617188 C 20.640625 87.648438 37.285156 99.765625 56.222656 99.765625 C 60.097656 99.765625 63.941406 99.253906 67.648438 98.246094 C 68.027344 98.140625 68.417969 98.367188 68.523438 98.746094 C 68.628906 99.128906 68.402344 99.519531 68.023438 99.625 C 64.191406 100.667969 60.222656 101.195312 56.222656 101.195312 " fill-opacity="1" fill-rule="nonzero"/><path fill="#f1ad53" d="M 100.445312 56.054688 C 100.058594 56.054688 99.738281 55.742188 99.730469 55.351562 C 99.253906 31.851562 79.738281 12.730469 56.222656 12.730469 C 42.101562 12.730469 28.796875 19.648438 20.628906 31.238281 C 20.402344 31.5625 19.957031 31.636719 19.632812 31.410156 C 19.308594 31.183594 19.230469 30.738281 19.460938 30.414062 C 23.53125 24.636719 28.976562 19.835938 35.203125 16.527344 C 41.636719 13.109375 48.90625 11.300781 56.222656 11.300781 C 68.050781 11.300781 79.222656 15.875 87.683594 24.175781 C 96.136719 32.46875 100.921875 43.53125 101.160156 55.324219 C 101.167969 55.71875 100.855469 56.046875 100.460938 56.054688 C 100.457031 56.054688 100.449219 56.054688 100.445312 56.054688 " fill-opacity="1" fill-rule="nonzero"/><path fill="#f1ad53" d="M 44.664062 96.097656 C 44.597656 96.097656 44.527344 96.089844 44.460938 96.066406 C 36.050781 93.578125 28.480469 88.335938 23.140625 81.304688 C 17.621094 74.039062 14.707031 65.375 14.707031 56.25 C 14.707031 41.003906 23.058594 27.007812 36.503906 19.722656 C 36.851562 19.53125 37.285156 19.660156 37.472656 20.007812 C 37.660156 20.355469 37.53125 20.789062 37.183594 20.976562 C 24.203125 28.015625 16.136719 41.527344 16.136719 56.25 C 16.136719 73.882812 27.949219 89.691406 44.867188 94.699219 C 45.246094 94.808594 45.460938 95.207031 45.347656 95.585938 C 45.257812 95.898438 44.972656 96.097656 44.664062 96.097656 " fill-opacity="1" fill-rule="nonzero"/><path fill="#544f9f" d="M 56.222656 97.765625 C 56.074219 97.765625 55.921875 97.761719 55.773438 97.761719 C 55.378906 97.757812 55.0625 97.433594 55.066406 97.039062 C 55.070312 96.648438 55.390625 96.332031 55.78125 96.332031 C 55.785156 96.332031 55.785156 96.332031 55.789062 96.332031 C 55.933594 96.335938 56.078125 96.335938 56.222656 96.335938 C 78.328125 96.335938 96.308594 78.351562 96.308594 56.25 C 96.308594 34.144531 78.328125 16.160156 56.222656 16.160156 C 55.894531 16.160156 55.5625 16.164062 55.238281 16.171875 C 54.84375 16.179688 54.515625 15.871094 54.507812 15.476562 C 54.496094 15.082031 54.808594 14.753906 55.203125 14.746094 C 55.539062 14.738281 55.882812 14.730469 56.222656 14.730469 C 79.117188 14.730469 97.738281 33.355469 97.738281 56.25 C 97.738281 79.140625 79.117188 97.765625 56.222656 97.765625 " fill-opacity="1" fill-rule="nonzero"/><path fill="#f0401e" d="M 56.222656 94.335938 C 35.222656 94.335938 18.136719 77.25 18.136719 56.25 C 18.136719 35.246094 35.222656 18.164062 56.222656 18.164062 C 59.121094 18.164062 62.011719 18.492188 64.8125 19.140625 C 65.195312 19.226562 65.4375 19.613281 65.347656 19.996094 C 65.257812 20.382812 64.875 20.621094 64.488281 20.53125 C 61.792969 19.90625 59.011719 19.589844 56.222656 19.589844 C 36.011719 19.589844 19.566406 36.035156 19.566406 56.25 C 19.566406 76.460938 36.011719 92.90625 56.222656 92.90625 C 60.074219 92.90625 63.871094 92.308594 67.507812 91.128906 C 67.882812 91.007812 68.285156 91.210938 68.410156 91.589844 C 68.53125 91.964844 68.324219 92.367188 67.949219 92.488281 C 64.171875 93.710938 60.226562 94.335938 56.222656 94.335938 " fill-opacity="1" fill-rule="nonzero"/><path fill="#544f9f" d="M 81.347656 84.605469 C 81.152344 84.605469 80.960938 84.527344 80.816406 84.371094 C 80.554688 84.078125 80.574219 83.628906 80.867188 83.363281 C 88.5 76.417969 92.878906 66.535156 92.878906 56.25 C 92.878906 44.191406 86.925781 32.894531 76.953125 26.03125 C 76.628906 25.808594 76.546875 25.363281 76.769531 25.039062 C 76.992188 24.710938 77.4375 24.628906 77.765625 24.855469 C 88.125 31.984375 94.308594 43.71875 94.308594 56.25 C 94.308594 61.699219 93.175781 66.964844 90.941406 71.902344 C 88.785156 76.667969 85.71875 80.882812 81.828125 84.417969 C 81.691406 84.542969 81.519531 84.605469 81.347656 84.605469 " fill-opacity="1" fill-rule="nonzero"/><path fill="#f0401e" d="M 56.222656 90.902344 C 44.429688 90.902344 33.546875 84.972656 27.113281 75.035156 C 26.898438 74.703125 26.992188 74.261719 27.324219 74.046875 C 27.65625 73.832031 28.097656 73.925781 28.3125 74.257812 C 34.484375 83.785156 44.917969 89.472656 56.222656 89.472656 C 74.542969 89.472656 89.449219 74.570312 89.449219 56.25 C 89.449219 54.789062 89.351562 53.324219 89.164062 51.886719 C 89.113281 51.496094 89.386719 51.136719 89.777344 51.085938 C 90.167969 51.03125 90.527344 51.308594 90.582031 51.699219 C 90.777344 53.199219 90.878906 54.726562 90.878906 56.25 C 90.878906 75.355469 75.332031 90.902344 56.222656 90.902344 " fill-opacity="1" fill-rule="nonzero"/><path fill="#f1ad53" d="M 22.320312 58.574219 C 21.941406 58.574219 21.625 58.277344 21.605469 57.894531 C 21.582031 57.351562 21.566406 56.796875 21.566406 56.25 C 21.566406 37.140625 37.113281 21.59375 56.222656 21.59375 C 69.957031 21.59375 82.414062 29.734375 87.960938 42.332031 C 88.117188 42.691406 87.957031 43.113281 87.59375 43.273438 C 87.234375 43.433594 86.808594 43.269531 86.652344 42.90625 C 81.335938 30.828125 69.390625 23.023438 56.222656 23.023438 C 37.902344 23.023438 22.996094 37.925781 22.996094 56.25 C 22.996094 56.773438 23.007812 57.304688 23.035156 57.828125 C 23.054688 58.222656 22.746094 58.558594 22.355469 58.574219 C 22.34375 58.574219 22.332031 58.574219 22.320312 58.574219 " fill-opacity="1" fill-rule="nonzero"/><path fill="#5db3e7" d="M 56.222656 87.472656 C 39.003906 87.472656 25 73.464844 25 56.25 C 25 51.25 26.148438 46.476562 28.417969 42.050781 C 28.597656 41.699219 29.027344 41.5625 29.378906 41.742188 C 29.730469 41.921875 29.867188 42.351562 29.6875 42.703125 C 27.523438 46.925781 26.429688 51.480469 26.429688 56.25 C 26.429688 72.675781 39.792969 86.042969 56.222656 86.042969 C 65.160156 86.042969 73.554688 82.066406 79.25 75.136719 C 79.5 74.832031 79.949219 74.789062 80.253906 75.039062 C 80.558594 75.289062 80.605469 75.738281 80.351562 76.042969 C 74.382812 83.308594 65.589844 87.472656 56.222656 87.472656 " fill-opacity="1" fill-rule="nonzero"/><path fill="#54afe6" d="M 85.242188 66.390625 C 85.167969 66.390625 85.09375 66.378906 85.019531 66.355469 C 84.644531 66.234375 84.441406 65.832031 84.5625 65.457031 C 85.527344 62.492188 86.019531 59.394531 86.019531 56.25 C 86.019531 39.820312 72.652344 26.453125 56.222656 26.453125 C 51.382812 26.453125 46.574219 27.644531 42.316406 29.902344 C 41.96875 30.085938 41.535156 29.953125 41.351562 29.605469 C 41.164062 29.257812 41.296875 28.824219 41.648438 28.640625 C 46.109375 26.273438 51.148438 25.023438 56.222656 25.023438 C 73.441406 25.023438 87.449219 39.03125 87.449219 56.25 C 87.449219 59.542969 86.933594 62.789062 85.921875 65.898438 C 85.824219 66.199219 85.542969 66.390625 85.242188 66.390625 " fill-opacity="1" fill-rule="nonzero"/><path fill="#544f9f" d="M 56.222656 84.042969 C 54.0625 84.042969 51.910156 83.792969 49.824219 83.300781 C 49.441406 83.207031 49.203125 82.824219 49.292969 82.4375 C 49.382812 82.054688 49.769531 81.816406 50.152344 81.910156 C 52.132812 82.375 54.171875 82.613281 56.222656 82.613281 C 70.761719 82.613281 82.585938 70.785156 82.585938 56.25 C 82.585938 41.710938 70.761719 29.882812 56.222656 29.882812 C 41.6875 29.882812 29.859375 41.710938 29.859375 56.25 C 29.859375 63.949219 33.226562 71.25 39.097656 76.277344 C 39.398438 76.535156 39.433594 76.988281 39.175781 77.285156 C 38.921875 77.585938 38.46875 77.621094 38.167969 77.363281 C 31.980469 72.066406 28.429688 64.367188 28.429688 56.25 C 28.429688 40.921875 40.898438 28.453125 56.222656 28.453125 C 71.546875 28.453125 84.015625 40.921875 84.015625 56.25 C 84.015625 71.574219 71.546875 84.042969 56.222656 84.042969 " fill-opacity="1" fill-rule="nonzero"/><path fill="#f1ad53" d="M 56.222656 80.613281 C 51.285156 80.613281 46.523438 79.136719 42.460938 76.34375 C 38.492188 73.617188 35.441406 69.828125 33.636719 65.382812 C 33.488281 65.019531 33.664062 64.601562 34.03125 64.453125 C 34.394531 64.304688 34.8125 64.480469 34.960938 64.847656 C 38.496094 73.554688 46.839844 79.183594 56.222656 79.183594 C 68.867188 79.183594 79.15625 68.894531 79.15625 56.25 C 79.15625 47.601562 74.359375 39.769531 66.636719 35.820312 C 66.285156 35.636719 66.148438 35.207031 66.328125 34.855469 C 66.507812 34.503906 66.9375 34.367188 67.289062 34.546875 C 71.226562 36.5625 74.546875 39.609375 76.894531 43.367188 C 79.308594 47.226562 80.585938 51.683594 80.585938 56.25 C 80.585938 69.683594 69.65625 80.613281 56.222656 80.613281 " fill-opacity="1" fill-rule="nonzero"/><path fill="#5db3e7" d="M 33.371094 50.875 C 33.308594 50.875 33.246094 50.867188 33.183594 50.851562 C 32.804688 50.75 32.578125 50.359375 32.679688 49.976562 C 33.996094 45.027344 36.9375 40.515625 40.953125 37.277344 C 45.085938 33.941406 50.074219 32.082031 55.371094 31.898438 C 55.765625 31.886719 56.09375 32.195312 56.109375 32.589844 C 56.121094 32.984375 55.8125 33.3125 55.417969 33.328125 C 45.421875 33.675781 36.636719 40.671875 34.058594 50.34375 C 33.972656 50.664062 33.683594 50.875 33.371094 50.875 " fill-opacity="1" fill-rule="nonzero"/><path fill="#f14d27" d="M 56.222656 77.179688 C 44.679688 77.179688 35.289062 67.789062 35.289062 56.25 C 35.289062 44.707031 44.679688 35.316406 56.222656 35.316406 C 67.765625 35.316406 77.15625 44.707031 77.15625 56.25 C 77.15625 57.855469 76.972656 59.457031 76.613281 61.011719 C 76.523438 61.394531 76.136719 61.632812 75.753906 61.546875 C 75.367188 61.457031 75.128906 61.070312 75.21875 60.6875 C 75.554688 59.242188 75.726562 57.746094 75.726562 56.25 C 75.726562 45.492188 66.976562 36.746094 56.222656 36.746094 C 45.46875 36.746094 36.71875 45.492188 36.71875 56.25 C 36.71875 67.003906 45.46875 75.75 56.222656 75.75 C 59.777344 75.75 63.253906 74.785156 66.277344 72.964844 C 66.617188 72.757812 67.054688 72.867188 67.257812 73.207031 C 67.464844 73.542969 67.355469 73.984375 67.015625 74.1875 C 63.769531 76.144531 60.035156 77.179688 56.222656 77.179688 " fill-opacity="1" fill-rule="nonzero"/></svg>